<svg width="20" height="20" viewBox="0 0 20 20" fill="none" xmlns="http://www.w3.org/2000/svg">
<path d="M10.0003 6.45835C9.48256 6.45835 9.06283 6.87809 9.06283 7.39585C9.06283 7.74103 8.783 8.02085 8.43783 8.02085C8.09265 8.02085 7.81283 7.74103 7.81283 7.39585C7.81283 6.18773 8.7922 5.20835 10.0003 5.20835C11.2084 5.20835 12.1878 6.18773 12.1878 7.39585C12.1878 8.19864 11.755 8.89967 11.113 9.27949C10.9491 9.3765 10.8137 9.48241 10.7256 9.58633C10.6399 9.68721 10.6253 9.75302 10.6253 9.79169V10.8334C10.6253 11.1785 10.3455 11.4584 10.0003 11.4584C9.65515 11.4584 9.37533 11.1785 9.37533 10.8334V9.79169C9.37533 9.37012 9.55989 9.02805 9.77249 8.77753C9.98251 8.53004 10.2444 8.34102 10.4766 8.20368C10.754 8.03951 10.9378 7.73882 10.9378 7.39585C10.9378 6.87809 10.5181 6.45835 10.0003 6.45835Z" fill="#1DA1F2"/>
<path d="M10.0003 14.1667C10.4606 14.1667 10.8337 13.7936 10.8337 13.3334C10.8337 12.8731 10.4606 12.5 10.0003 12.5C9.54009 12.5 9.16699 12.8731 9.16699 13.3334C9.16699 13.7936 9.54009 14.1667 10.0003 14.1667Z" fill="#1DA1F2"/>
<path fill-rule="evenodd" clip-rule="evenodd" d="M9.95251 1.04169H10.0481C11.9718 1.04168 13.4793 1.04167 14.6556 1.19981C15.8595 1.36168 16.8095 1.69946 17.5552 2.44513C18.3009 3.19081 18.6387 4.14083 18.8005 5.34478C18.9587 6.52102 18.9587 8.02855 18.9587 9.95221V10.0478C18.9587 11.9715 18.9587 13.479 18.8005 14.6553C18.6387 15.8592 18.3009 16.8092 17.5552 17.5549C16.8095 18.3006 15.8595 18.6384 14.6556 18.8002C13.4793 18.9584 11.9718 18.9584 10.0481 18.9584H9.95252C8.02885 18.9584 6.52132 18.9584 5.34508 18.8002C4.14113 18.6384 3.19111 18.3006 2.44544 17.5549C1.69976 16.8092 1.36198 15.8592 1.20011 14.6553C1.04197 13.479 1.04198 11.9715 1.04199 10.0478V9.9522C1.04198 8.02855 1.04197 6.52101 1.20011 5.34478C1.36198 4.14083 1.69976 3.19081 2.44544 2.44513C3.19111 1.69946 4.14113 1.36168 5.34508 1.19981C6.52132 1.04167 8.02886 1.04168 9.95251 1.04169ZM5.51164 2.43866C4.4463 2.58189 3.80404 2.8543 3.32932 3.32902C2.85461 3.80373 2.5822 4.446 2.43897 5.51133C2.29332 6.59465 2.29199 8.01817 2.29199 10C2.29199 11.9819 2.29332 13.4054 2.43897 14.4887C2.5822 15.554 2.85461 16.1963 3.32932 16.671C3.80404 17.1457 4.4463 17.4181 5.51164 17.5614C6.59496 17.707 8.01847 17.7084 10.0003 17.7084C11.9822 17.7084 13.4057 17.707 14.489 17.5614C15.5543 17.4181 16.1966 17.1457 16.6713 16.671C17.146 16.1963 17.4185 15.554 17.5617 14.4887C17.7073 13.4054 17.7087 11.9819 17.7087 10C17.7087 8.01817 17.7073 6.59465 17.5617 5.51133C17.4185 4.446 17.146 3.80373 16.6713 3.32902C16.1966 2.8543 15.5543 2.58189 14.489 2.43866C13.4057 2.29302 11.9822 2.29169 10.0003 2.29169C8.01847 2.29169 6.59496 2.29302 5.51164 2.43866Z" fill="#1DA1F2"/>
</svg>
